<svg xmlns="http://www.w3.org/2000/svg" xmlns:xlink="http://www.w3.org/1999/xlink" version="1.1" id="Layer_1" x="0px" y="0px" width="20px" height="20px" viewBox="0 0 20 20" enable-background="new 0 0 20 20" xml:space="preserve">
<g>
	<circle cx="-122.677" cy="10" r="13.498"/>
	<path d="M-93,6.992h-6.753c-1.346-10.369-9.545-18.568-19.917-19.917V-20h-6.013v7.074c-10.369,1.35-18.568,9.549-19.917,19.917   h-7.4v6.013h7.399c1.35,10.372,9.549,18.568,19.917,19.917V40h6.013v-7.078c10.372-1.349,18.571-9.545,19.917-19.917H-93V6.992z    M-122.677,28.282c-10.081,0-18.28-8.203-18.28-18.284s8.199-18.28,18.28-18.28s18.283,8.199,18.283,18.28   S-112.596,28.282-122.677,28.282z"/>
</g>
<g>
	<circle cx="-63.785" cy="9" r="8.999"/>
	<path d="M-44,6.995h-4.502C-49.399,0.082-54.866-5.384-61.78-6.284V-11h-4.009v4.716c-6.913,0.899-12.378,6.366-13.278,13.278H-84   v4.009h4.933c0.9,6.914,6.366,12.379,13.278,13.278V29h4.009v-4.719c6.915-0.898,12.381-6.364,13.278-13.278H-44V6.995z    M-63.785,21.189c-6.721,0-12.187-5.47-12.187-12.19c0-6.721,5.466-12.187,12.187-12.187s12.189,5.466,12.189,12.187   C-51.596,15.719-57.064,21.189-63.785,21.189z"/>
</g>
<g>
	<circle cx="-20.838" cy="11" r="6.749"/>
	<path d="M-6,9.496h-3.376c-0.673-5.185-4.773-9.284-9.958-9.959V-4h-3.007v3.537c-5.185,0.675-9.284,4.774-9.959,9.959H-36v3.006   h3.699c0.675,5.186,4.774,9.285,9.959,9.958V26h3.007v-3.539c5.186-0.674,9.285-4.773,9.958-9.958H-6V9.496z M-20.838,20.142   c-5.041,0-9.14-4.103-9.14-9.143s4.1-9.14,9.14-9.14s9.142,4.1,9.142,9.14S-15.798,20.142-20.838,20.142z"/>
</g>
<g>
	<circle cx="10.108" cy="10" r="4.5"/>
	<path d="M20,8.998h-2.251c-0.449-3.457-3.182-6.189-6.639-6.64V0H9.105v2.358c-3.457,0.45-6.189,3.183-6.639,6.64H0v2.004h2.466   c0.45,3.457,3.183,6.19,6.639,6.639V20h2.004v-2.359c3.457-0.449,6.19-3.182,6.639-6.639H20V8.998z M10.108,16.095   c-3.36,0-6.094-2.735-6.094-6.095s2.733-6.094,6.094-6.094S16.202,6.639,16.202,10S13.468,16.095,10.108,16.095z"/>
</g>
</svg>