<svg xmlns="http://www.w3.org/2000/svg" xmlns:xlink="http://www.w3.org/1999/xlink" version="1.1" baseProfile="tiny" x="0px" y="0px" width="100px" height="100px" viewBox="0 0 100 100" xml:space="preserve">
<g id="Captions">
</g>
<g id="Your_Icon">
	<path fill-rule="evenodd" fill="#000000" d="M10,23v54c0,5.039,1.02,6,6,6h68c4.939,0,6-0.92,6-6V23c0-4.92-0.941-6-6-6H16   C11.039,17,10,17.859,10,23z M80.58,69H19.461c6.68-9.74,18.559-25.98,21.578-25.98c2.922,0,12.84,13.121,17.32,17.74   c0,0,5.762-7.699,8.781-7.699C70.219,53.061,80.48,68.92,80.58,69z M62.621,35c0-4.08,3.299-7.379,7.379-7.379   S77.379,30.92,77.379,35S74.08,42.379,70,42.379S62.621,39.08,62.621,35z"/>
</g>
</svg>